{
    "asset" : {
        "generator" : "Khronos glTF Blender I/O v3.2.43",
        "version" : "2.0"
    },
    "scene" : 0,
    "scenes" : [
        {
            "name" : "Scene",
            "nodes" : [
                0
            ]
        }
    ],
    "nodes" : [
        {
            "mesh" : 0,
            "name" : "path4942-6-2",
            "scale" : [
                39.156517028808594,
                39.156517028808594,
                39.156517028808594
            ],
            "translation" : [
                -1.3425407409667969,
                0.5709657073020935,
                1.5791536569595337
            ]
        }
    ],
    "materials" : [
        {
            "doubleSided" : true,
            "name" : "Walls",
            "pbrMetallicRoughness" : {
                "baseColorFactor" : [
                    0.800000011920929,
                    0.800000011920929,
                    0.800000011920929,
                    1
                ],
                "metallicFactor" : 0,
                "roughnessFactor" : 0.5
            }
        },
        {
            "doubleSided" : true,
            "name" : "Floor",
            "pbrMetallicRoughness" : {
                "baseColorFactor" : [
                    0.6038153767585754,
                    0.10349122434854507,
                    0.0039828079752624035,
                    1
                ],
                "metallicFactor" : 0,
                "roughnessFactor" : 0.5
            }
        }
    ],
    "meshes" : [
        {
            "name" : "path4942-6-2.004",
            "primitives" : [
                {
                    "attributes" : {
                        "POSITION" : 0,
                        "NORMAL" : 1,
                        "TEXCOORD_0" : 2
                    },
                    "indices" : 3,
                    "material" : 0
                },
                {
                    "attributes" : {
                        "POSITION" : 4,
                        "NORMAL" : 5,
                        "TEXCOORD_0" : 6
                    },
                    "indices" : 7,
                    "material" : 1
                }
            ]
        }
    ],
    "accessors" : [
        {
            "bufferView" : 0,
            "componentType" : 5126,
            "count" : 417,
            "max" : [
                0.06932532042264938,
                0,
                -1.4901161193847656e-08
            ],
            "min" : [
                0,
                -0.024745237082242966,
                -0.09423410892486572
            ],
            "type" : "VEC3"
        },
        {
            "bufferView" : 1,
            "componentType" : 5126,
            "count" : 417,
            "type" : "VEC3"
        },
        {
            "bufferView" : 2,
            "componentType" : 5126,
            "count" : 417,
            "type" : "VEC2"
        },
        {
            "bufferView" : 3,
            "componentType" : 5123,
            "count" : 753,
            "type" : "SCALAR"
        },
        {
            "bufferView" : 4,
            "componentType" : 5126,
            "count" : 71,
            "max" : [
                0.06805557757616043,
                -0.023505212739109993,
                -0.0012694597244262695
            ],
            "min" : [
                0.0012702122330665588,
                -0.023505212739109993,
                -0.09296414256095886
            ],
            "type" : "VEC3"
        },
        {
            "bufferView" : 5,
            "componentType" : 5126,
            "count" : 71,
            "type" : "VEC3"
        },
        {
            "bufferView" : 6,
            "componentType" : 5126,
            "count" : 71,
            "type" : "VEC2"
        },
        {
            "bufferView" : 7,
            "componentType" : 5123,
            "count" : 207,
            "type" : "SCALAR"
        }
    ],
    "bufferViews" : [
        {
            "buffer" : 0,
            "byteLength" : 5004,
            "byteOffset" : 0
        },
        {
            "buffer" : 0,
            "byteLength" : 5004,
            "byteOffset" : 5004
        },
        {
            "buffer" : 0,
            "byteLength" : 3336,
            "byteOffset" : 10008
        },
        {
            "buffer" : 0,
            "byteLength" : 1506,
            "byteOffset" : 13344
        },
        {
            "buffer" : 0,
            "byteLength" : 852,
            "byteOffset" : 14852
        },
        {
            "buffer" : 0,
            "byteLength" : 852,
            "byteOffset" : 15704
        },
        {
            "buffer" : 0,
            "byteLength" : 568,
            "byteOffset" : 16556
        },
        {
            "buffer" : 0,
            "byteLength" : 414,
            "byteOffset" : 17124
        }
    ],
    "buffers" : [
        {
            "byteLength" : 17540,
            "uri" : "data:application/octet-stream;base64,"
        }
    ]
}
